<svg width="41" height="41" viewBox="0 0 41 41" fill="none" xmlns="http://www.w3.org/2000/svg">
<path d="M12.5663 12.9452C12.3276 12.9452 12.0987 13.0345 11.9299 13.1935C11.7611 13.3525 11.6663 13.5681 11.6663 13.793V17.1843V18.456C11.6663 19.8889 12.5933 21.1097 13.9163 21.6099V26.9343C13.9163 27.2716 14.0586 27.595 14.3117 27.8335C14.5649 28.072 14.9083 28.206 15.2663 28.206C15.6244 28.206 15.9677 28.072 16.2209 27.8335C16.4741 27.595 16.6163 27.2716 16.6163 26.9343V21.6099C17.9393 21.1097 18.8663 19.8889 18.8663 18.456V17.1843V13.793C18.8663 13.5681 18.7715 13.3525 18.6027 13.1935C18.4339 13.0345 18.205 12.9452 17.9663 12.9452C17.7276 12.9452 17.4987 13.0345 17.3299 13.1935C17.1611 13.3525 17.0663 13.5681 17.0663 13.793V17.1843C17.0663 17.2967 17.0189 17.4045 16.9345 17.484C16.8501 17.5635 16.7357 17.6082 16.6163 17.6082C16.497 17.6082 16.3825 17.5635 16.2981 17.484C16.2137 17.4045 16.1663 17.2967 16.1663 17.1843V13.793C16.1663 13.5681 16.0715 13.3525 15.9027 13.1935C15.7339 13.0345 15.505 12.9452 15.2663 12.9452C15.0276 12.9452 14.7987 13.0345 14.6299 13.1935C14.4611 13.3525 14.3663 13.5681 14.3663 13.793V17.1843C14.3663 17.2967 14.3189 17.4045 14.2345 17.484C14.1501 17.5635 14.0357 17.6082 13.9163 17.6082C13.797 17.6082 13.6825 17.5635 13.5981 17.484C13.5137 17.4045 13.4663 17.2967 13.4663 17.1843V13.793C13.4663 13.5681 13.3715 13.3525 13.2027 13.1935C13.0339 13.0345 12.805 12.9452 12.5663 12.9452ZM27.7583 12.9452C27.6413 12.9452 27.5243 13.0215 27.4163 13.0808L24.2663 14.8528V18.0321H20.6663V19.7278H21.5663L22.4663 28.206H27.8663L28.7663 19.7278H29.6663V18.0321H26.0663V15.7769L28.3163 14.5052C28.7663 14.2678 28.8833 13.793 28.6223 13.3691C28.4333 13.0639 28.1003 12.9028 27.7583 12.9452Z" fill="#B5B5B5" fill-opacity="0.5"/>
</svg>
