<svg width="40" height="41" viewBox="0 0 40 41" fill="none" xmlns="http://www.w3.org/2000/svg">
<g clip-path="url(#clip0_1_210)">
<path d="M26.3411 20.1596C26.1059 19.8016 25.8195 19.4914 25.5536 19.1812C24.8684 18.4653 24.0911 17.9522 23.4366 17.2005C21.9127 15.4584 21.5752 12.5829 22.5468 10.3755C21.5752 10.6499 20.7264 11.2704 20.0002 11.9505C17.3514 14.4323 16.3082 18.8113 17.5559 22.5698C17.5968 22.6891 17.6377 22.8084 17.6377 22.9636C17.6377 23.2261 17.4843 23.4647 17.2798 23.5601C17.0445 23.6795 16.7991 23.6079 16.6048 23.417C16.5434 23.3573 16.5025 23.2976 16.4616 23.2141C15.3059 21.5079 15.1218 19.0619 15.8991 17.105C14.1911 18.7278 13.2604 21.4721 13.3934 24.0613C13.4548 24.6579 13.5161 25.2545 13.69 25.8511C13.8332 26.567 14.1093 27.2829 14.4161 27.9153C15.5207 29.9795 17.4332 31.459 19.4889 31.7573C21.6775 32.0795 24.0195 31.6141 25.6968 29.8482C27.5684 27.8675 28.223 24.6937 27.2616 21.9732L27.1286 21.663C26.9139 21.1141 26.3411 20.1596 26.3411 20.1596ZM23.1093 27.6766C22.8229 27.963 22.3525 28.2732 21.9843 28.3925C20.8389 28.8698 19.6934 28.2016 19.0184 27.4141C20.2354 27.08 20.9616 26.03 21.1764 24.9681C21.3502 24.0136 21.0229 23.2261 20.89 22.3073C20.7673 21.4244 20.7877 20.6726 21.0639 19.8494C21.2582 20.3028 21.4627 20.7562 21.7082 21.1141C22.4957 22.3073 23.7332 22.8323 23.9991 24.455C24.04 24.6221 24.0604 24.7891 24.0604 24.9681C24.0911 25.9465 23.7229 27.0204 23.1093 27.6766Z" fill="#D15439"/>
</g>
<defs>
<clipPath id="clip0_1_210">
<rect x="11.3359" y="3.04456" width="24.5455" height="28.6364" rx="4.09091" fill="white"/>
</clipPath>
</defs>
</svg>
