<svg width="40" height="41" viewBox="0 0 40 41" fill="none" xmlns="http://www.w3.org/2000/svg">
<path d="M10.7954 23.2521L11.3068 23.3195L15.9807 18.9166C15.7966 18.2904 15.9704 17.5774 16.5125 17.0764C17.3102 16.3153 18.5988 16.3153 19.3966 17.0764C19.9386 17.5774 20.1125 18.2904 19.9284 18.9166L22.5568 21.3926L23.0682 21.3252C23.2523 21.3252 23.4261 21.3252 23.5795 21.3926L27.2307 17.9532C27.1591 17.8086 27.1591 17.6449 27.1591 17.4714C27.1591 16.9604 27.3746 16.4703 27.7582 16.1089C28.1418 15.7476 28.662 15.5446 29.2045 15.5446C29.747 15.5446 30.2673 15.7476 30.6509 16.1089C31.0345 16.4703 31.25 16.9604 31.25 17.4714C31.25 17.9825 31.0345 18.4726 30.6509 18.8339C30.2673 19.1953 29.747 19.3983 29.2045 19.3983C29.0204 19.3983 28.8466 19.3983 28.6932 19.3309L25.042 22.7703C25.1136 22.9149 25.1136 23.0786 25.1136 23.2521C25.1136 23.7631 24.8981 24.2532 24.5145 24.6146C24.1309 24.9759 23.6107 25.1789 23.0682 25.1789C22.5257 25.1789 22.0054 24.9759 21.6218 24.6146C21.2382 24.2532 21.0227 23.7631 21.0227 23.2521L21.0943 22.7703L18.4659 20.2943C18.1386 20.3617 17.7704 20.3617 17.4432 20.2943L12.7693 24.6972L12.8409 25.1789C12.8409 25.69 12.6254 26.1801 12.2418 26.5415C11.8582 26.9028 11.3379 27.1058 10.7954 27.1058C10.2529 27.1058 9.73267 26.9028 9.34907 26.5415C8.96547 26.1801 8.74997 25.69 8.74997 25.1789C8.74997 24.6679 8.96547 24.1778 9.34907 23.8164C9.73267 23.4551 10.2529 23.2521 10.7954 23.2521Z" fill="#B5B5B5" fill-opacity="0.5"/>
</svg>
