<svg width="41" height="41" viewBox="0 0 41 41" fill="none" xmlns="http://www.w3.org/2000/svg">
<path d="M29.4497 24.1844L30.9122 22.8067L29.4497 21.4289L25.7986 24.8684L17.0338 16.6117L20.6849 13.1723L19.2224 11.7946L17.7599 13.1723L16.2974 11.7946L14.1088 13.8563L12.6463 12.4786L11.1838 13.8563L12.6463 15.234L10.4577 17.2958L11.9202 18.6735L10.4577 20.0512L11.9202 21.4289L15.5713 17.9895L24.3361 26.2461L20.6849 29.6856L22.1475 31.0633L23.61 29.6856L25.0725 31.0633L27.2611 29.0016L28.7236 30.3793L30.1861 29.0016L28.7236 27.6239L30.9122 25.5621L29.4497 24.1844Z" fill="#B5B5B5" fill-opacity="0.5"/>
</svg>
